<svg width="18" height="22" viewBox="0 0 18 22" fill="none" xmlns="http://www.w3.org/2000/svg">
<path d="M13.1213 0C13.1722 0 13.2231 0 13.2769 0C13.4017 1.54211 12.8131 2.69437 12.0977 3.5288C11.3958 4.35747 10.4346 5.16117 8.88005 5.03922C8.77634 3.5192 9.36592 2.45239 10.0803 1.61989C10.7429 0.844031 11.9575 0.153635 13.1213 0Z" fill="black"/>
<path d="M17.8274 16.0514C17.8274 16.0668 17.8274 16.0802 17.8274 16.0946C17.3905 17.4178 16.7673 18.5518 16.0068 19.6042C15.3126 20.5596 14.4618 21.8454 12.9428 21.8454C11.6302 21.8454 10.7583 21.0013 9.41301 20.9783C7.98997 20.9552 7.20739 21.684 5.9063 21.8674C5.75746 21.8674 5.60863 21.8674 5.46268 21.8674C4.50726 21.7292 3.73621 20.9725 3.17448 20.2908C1.5181 18.2762 0.238134 15.674 0 12.344C0 12.0175 0 11.692 0 11.3655C0.100823 8.98228 1.25884 7.04456 2.79807 6.10547C3.61042 5.60615 4.72715 5.18078 5.97063 5.3709C6.50355 5.45348 7.04799 5.63592 7.52522 5.81644C7.97749 5.99024 8.54305 6.29847 9.07885 6.28215C9.44182 6.27159 9.80286 6.08242 10.1687 5.94895C11.2403 5.56199 12.2908 5.11836 13.6754 5.32673C15.3395 5.57831 16.5205 6.31768 17.2503 7.45841C15.8426 8.3543 14.7297 9.70436 14.9199 12.0098C15.0889 14.1041 16.3064 15.3293 17.8274 16.0514Z" fill="black"/>
</svg>
