<svg width="28" height="28" viewBox="0 0 28 28" fill="none" xmlns="http://www.w3.org/2000/svg">
<path d="M20.7256 19.0961L20.7256 19.0962L20.7375 19.1001C22.5362 19.6834 24.4653 20.0078 26.46 20.0078C26.8858 20.0078 27.25 20.372 27.25 20.7978V26.1644C27.25 26.4811 27.1667 26.7777 27.0302 26.9723C26.9152 27.1363 26.7533 27.25 26.46 27.25C12.4384 27.25 0.75 15.5766 0.75 1.54C0.75 1.21387 0.872089 1.05981 1.02736 0.956016C1.22219 0.82578 1.52339 0.75 1.85111 0.75H7.23333C7.65912 0.75 8.02333 1.11421 8.02333 1.54C8.02333 3.52796 8.33003 5.45693 8.93056 7.26116C9.0169 7.54189 8.95702 7.84667 8.75257 8.07425L5.75162 10.6289L5.31109 11.0039L5.56196 11.5252C7.83249 16.2434 12.0827 20.3309 16.6326 22.5014L17.1706 22.758L17.5421 22.2919L19.9538 19.2657C20.1724 19.0647 20.4668 19.0074 20.7256 19.0961Z" stroke="#FF0000" stroke-width="1.5"/>
</svg>
