<svg width="25" height="12" viewBox="0 0 25 12" fill="none" xmlns="http://www.w3.org/2000/svg">
<path d="M12.7733 6.75C14.3925 6.75 15.8229 7.14 16.9851 7.65C18.0579 8.13 18.7333 9.21 18.7333 10.38V12H6.81333V10.39C6.81333 9.21 7.4888 8.13 8.5616 7.66C9.7238 7.14 11.1542 6.75 12.7733 6.75ZM4.82667 7C5.91933 7 6.81333 6.1 6.81333 5C6.81333 3.9 5.91933 3 4.82667 3C3.734 3 2.84 3.9 2.84 5C2.84 6.1 3.734 7 4.82667 7ZM5.94913 8.1C5.5816 8.04 5.21407 8 4.82667 8C3.84327 8 2.90953 8.21 2.0652 8.58C1.33013 8.9 0.853333 9.62 0.853333 10.43V12H5.32333V10.39C5.32333 9.56 5.5518 8.78 5.94913 8.1ZM20.72 7C21.8127 7 22.7067 6.1 22.7067 5C22.7067 3.9 21.8127 3 20.72 3C19.6273 3 18.7333 3.9 18.7333 5C18.7333 6.1 19.6273 7 20.72 7ZM24.6933 10.43C24.6933 9.62 24.2165 8.9 23.4815 8.58C22.6371 8.21 21.7034 8 20.72 8C20.3326 8 19.9651 8.04 19.5975 8.1C19.9949 8.78 20.2233 9.56 20.2233 10.39V12H24.6933V10.43ZM12.7733 0C14.4223 0 15.7533 1.34 15.7533 3C15.7533 4.66 14.4223 6 12.7733 6C11.1244 6 9.79333 4.66 9.79333 3C9.79333 1.34 11.1244 0 12.7733 0Z" fill="#FC7A7A"/>
</svg>
