<svg width="16" height="15" viewBox="0 0 16 15" fill="none" xmlns="http://www.w3.org/2000/svg">
<path d="M7.93732 0.416748C3.82599 0.416748 0.489258 3.59008 0.489258 7.50008C0.489258 11.4101 3.82599 14.5834 7.93732 14.5834C12.0487 14.5834 15.3854 11.4101 15.3854 7.50008C15.3854 3.59008 12.0487 0.416748 7.93732 0.416748ZM7.19252 13.1172C4.25053 12.7701 1.97887 10.3901 1.97887 7.50008C1.97887 7.06091 2.03846 6.643 2.13528 6.23216L5.7029 9.62508V10.3334C5.7029 11.1126 6.37323 11.7501 7.19252 11.7501V13.1172ZM12.3317 11.318C12.138 10.7442 11.5869 10.3334 10.9165 10.3334H10.1717V8.20842C10.1717 7.81883 9.83658 7.50008 9.42694 7.50008H4.9581V6.08342H6.44771C6.85735 6.08342 7.19252 5.76467 7.19252 5.37508V3.95842H8.68213C9.50142 3.95842 10.1717 3.32091 10.1717 2.54175V2.25133C12.354 3.09425 13.8958 5.12716 13.8958 7.50008C13.8958 8.97342 13.2999 10.3122 12.3317 11.318Z" fill="white"/>
</svg>
