<svg width="21" height="21" viewBox="0 0 21 21" fill="none" xmlns="http://www.w3.org/2000/svg">
<path d="M19.74 10.7188C19.74 10.0363 19.6788 9.38 19.565 8.75H10.5V12.4775H15.68C15.4525 13.6763 14.77 14.6913 13.7463 15.3738V17.7975H16.87C18.69 16.1175 19.74 13.65 19.74 10.7188Z" fill="#4285F4"/>
<path d="M10.5 20.1254C13.0987 20.1254 15.2775 19.2679 16.87 17.7979L13.7462 15.3741C12.8887 15.9516 11.795 16.3016 10.5 16.3016C7.99747 16.3016 5.87122 14.6129 5.10997 12.3379H1.90747V14.8229C3.49122 17.9641 6.73747 20.1254 10.5 20.1254Z" fill="#34A853"/>
<path d="M5.11 12.329C4.9175 11.7515 4.80375 11.139 4.80375 10.5003C4.80375 9.86152 4.9175 9.24902 5.11 8.67152V6.18652H1.9075C1.25125 7.48152 0.875 8.94277 0.875 10.5003C0.875 12.0578 1.25125 13.519 1.9075 14.814L4.40125 12.8715L5.11 12.329Z" fill="#FBBC05"/>
<path d="M10.5 4.7075C11.9175 4.7075 13.1775 5.1975 14.1837 6.1425L16.94 3.38625C15.2687 1.82875 13.0987 0.875 10.5 0.875C6.73747 0.875 3.49122 3.03625 1.90747 6.18625L5.10997 8.67125C5.87122 6.39625 7.99747 4.7075 10.5 4.7075Z" fill="#EA4335"/>
</svg>
