<svg width="40" height="43" viewBox="0 0 40 43" fill="none" xmlns="http://www.w3.org/2000/svg">
<path d="M24.3352 16.55C24.3352 15.5875 24.0169 14.7635 23.3803 14.0781C22.7437 13.3927 21.9783 13.05 21.0843 13.05C20.6509 13.05 20.2561 13.1333 19.9001 13.3C19.544 13.4667 19.2267 13.6833 18.948 13.95L23.4993 18.85C23.747 18.55 23.9482 18.2083 24.103 17.825C24.2578 17.4417 24.3352 17.0167 24.3352 16.55ZM32.0909 28.1L30.0475 25.9C31.1002 24.2 31.8819 22.6 32.3928 21.1C32.9036 19.6 33.1591 18.2167 33.1591 16.95C33.1591 13.0237 31.9935 9.80875 29.6624 7.30525C27.3313 4.80175 24.472 3.55 21.0843 3.55C19.4125 3.55 17.8567 3.85833 16.417 4.475C14.9773 5.09167 13.7157 5.98333 12.632 7.15L10.6815 5.05C12.0747 3.58333 13.6728 2.46667 15.4756 1.7C17.2784 0.933333 19.148 0.55 21.0843 0.55C25.0164 0.55 28.4762 2.03333 31.464 5C34.4517 7.96667 35.9456 11.95 35.9456 16.95C35.9456 18.65 35.6282 20.425 34.9935 22.275C34.3588 24.125 33.3913 26.0667 32.0909 28.1ZM26.518 30.7L9.61335 12.5C9.39662 13.1667 9.24182 13.875 9.14893 14.625C9.05605 15.375 9.00961 16.15 9.00961 16.95C9.00961 19.45 10.0158 22.3417 12.0283 25.625C14.0407 28.9083 17.0594 32.5667 21.0843 36.6C22.137 35.5667 23.1123 34.5583 24.0101 33.575C24.908 32.5917 25.744 31.6333 26.518 30.7ZM37.4781 42.5L28.5149 32.85C27.4932 34.0833 26.3709 35.3417 25.148 36.625C23.925 37.9083 22.5705 39.2167 21.0843 40.55C16.0996 35.9833 12.3766 31.7417 9.91521 27.825C7.45383 23.9083 6.22313 20.2833 6.22313 16.95C6.22313 15.6937 6.32375 14.4963 6.525 13.3578C6.72625 12.2193 7.02811 11.15 7.43061 10.15L0 2.15L1.99698 0L39.4751 40.35L37.4781 42.5Z" fill="#FDFDFD"/>
</svg>
