<svg width="36" height="16" viewBox="0 0 36 16" fill="none" xmlns="http://www.w3.org/2000/svg">
<path d="M14.684 10.996L13.0135 9.30697C13.2257 9.01206 13.3715 8.71046 13.451 8.40214C13.5306 8.09383 13.5703 7.77882 13.5703 7.4571C13.5703 7.13539 13.5306 6.82038 13.451 6.51206C13.3715 6.20375 13.2257 5.91555 13.0135 5.64745L14.684 3.91823C15.1082 4.42761 15.4264 4.99062 15.6385 5.60724C15.8507 6.22386 15.9567 6.84048 15.9567 7.4571C15.9567 8.07373 15.8507 8.68365 15.6385 9.28686C15.4264 9.89008 15.1082 10.4598 14.684 10.996ZM18.0647 14.4544L16.3544 12.7252C17.0173 11.9745 17.5145 11.1434 17.8459 10.2319C18.1774 9.32038 18.3431 8.39544 18.3431 7.4571C18.3431 6.51877 18.1774 5.60054 17.8459 4.70241C17.5145 3.80429 17.0173 2.97989 16.3544 2.22922L18.0647 0.5C18.9662 1.49196 19.6357 2.58445 20.0732 3.77748C20.5107 4.97051 20.7294 6.19705 20.7294 7.4571C20.7294 8.71716 20.5107 9.9504 20.0732 11.1568C19.6357 12.3633 18.9662 13.4625 18.0647 14.4544ZM6.41126 9.06568C5.53626 9.06568 4.78721 8.75067 4.1641 8.12064C3.54099 7.49062 3.22944 6.73324 3.22944 5.84853C3.22944 4.96381 3.54099 4.20643 4.1641 3.57641C4.78721 2.94638 5.53626 2.63137 6.41126 2.63137C7.28626 2.63137 8.03531 2.94638 8.65842 3.57641C9.28152 4.20643 9.59308 4.96381 9.59308 5.84853C9.59308 6.73324 9.28152 7.49062 8.65842 8.12064C8.03531 8.75067 7.28626 9.06568 6.41126 9.06568ZM0.0476227 15.5V14.5751C0.0476227 13.9316 0.219971 13.3418 0.564668 12.8056C0.909365 12.2694 1.38664 11.8673 1.99649 11.5992C2.68588 11.3043 3.39516 11.0764 4.12433 10.9156C4.85349 10.7547 5.6158 10.6743 6.41126 10.6743C7.20671 10.6743 7.96902 10.7547 8.69819 10.9156C9.42736 11.0764 10.1366 11.3043 10.826 11.5992C11.4359 11.8673 11.9132 12.2694 12.2578 12.8056C12.6025 13.3418 12.7749 13.9316 12.7749 14.5751V15.5H0.0476227ZM28.684 9.06568C27.809 9.06568 27.0599 8.75067 26.4368 8.12064C25.8137 7.49062 25.5022 6.73324 25.5022 5.84853C25.5022 4.96381 25.8137 4.20643 26.4368 3.57641C27.0599 2.94638 27.809 2.63137 28.684 2.63137C29.559 2.63137 30.308 2.94638 30.9311 3.57641C31.5543 4.20643 31.8658 4.96381 31.8658 5.84853C31.8658 6.73324 31.5543 7.49062 30.9311 8.12064C30.308 8.75067 29.559 9.06568 28.684 9.06568ZM22.3203 15.5V14.5751C22.3203 13.9316 22.4927 13.3418 22.8374 12.8056C23.1821 12.2694 23.6594 11.8673 24.2692 11.5992C24.9586 11.3043 25.6679 11.0764 26.3971 10.9156C27.1262 10.7547 27.8885 10.6743 28.684 10.6743C29.4794 10.6743 30.2418 10.7547 30.9709 10.9156C31.7001 11.0764 32.4094 11.3043 33.0988 11.5992C33.7086 11.8673 34.1859 12.2694 34.5306 12.8056C34.8753 13.3418 35.0476 13.9316 35.0476 14.5751V15.5H22.3203Z" fill="#8F8C8C"/>
</svg>
