<svg width="29" height="25" viewBox="0 0 29 25" fill="none" xmlns="http://www.w3.org/2000/svg">
<path d="M15.7684 10.0286C15.5693 9.63106 15.4806 9.16281 15.4609 8.7445H19.4548C19.4293 9.16107 19.3348 9.62686 19.1314 10.0232C18.984 10.3105 18.7869 10.5477 18.5292 10.7144C18.2746 10.8792 17.9271 10.9973 17.4406 10.9973C16.954 10.9973 16.6093 10.8792 16.3586 10.7157C16.1049 10.5502 15.9118 10.3147 15.7684 10.0286Z" stroke="white" stroke-width="1.25268"/>
<path d="M8.75746 7.39967C8.55833 7.00216 8.46964 6.53391 8.44986 6.1156H12.4438C12.4183 6.53216 12.3238 6.99795 12.1204 7.39429C11.973 7.6816 11.7759 7.91876 11.5182 8.08553C11.2636 8.25032 10.9162 8.36842 10.4296 8.36842C9.94303 8.36842 9.5983 8.25031 9.34757 8.08675C9.09388 7.92126 8.90079 7.68578 8.75746 7.39967Z" stroke="white" stroke-width="1.25268"/>
<circle cx="5.3676" cy="2.92595" r="2.81853" fill="white"/>
<path d="M7.78347 11.8288C8.67825 11.8288 12.7765 9.23388 11.8547 7.93646C10.9328 6.63904 9.17037 8.02594 7.8419 8.87602C6.64887 7.78738 4.51756 5.56534 3.04119 6.59433C-0.179986 9.94972 0.580568 15.3631 0.580568 16.1237C0.580568 16.8842 0.625306 19.1659 2.0122 19.1659H5.81497C5.90445 19.8519 6.1192 21.6802 6.26236 23.5055C6.44131 25.7872 9.93092 24.7582 9.75197 23.5055C9.57301 22.2528 9.2151 18.0027 9.12563 17.3316C9.03615 16.6605 8.72298 15.8105 7.78347 15.8105H3.93596C3.62279 14.8262 4.69651 10.0392 4.87547 10.0392C5.05442 10.0392 6.8887 11.8288 7.78347 11.8288Z" fill="white"/>
<path d="M21.9957 12.2765C21.1904 12.3659 16.9402 12.8133 16.9402 11.2475C16.9402 9.68167 19.2219 9.86061 21.1009 9.68166C22.2193 8.51845 23.7405 5.52096 25.5747 6.54994C28.912 9.90406 28.2227 15.4016 28.2227 16.1618C28.2227 16.9221 28.1764 19.2029 26.7395 19.2029H22.7997C22.707 19.8886 22.4845 21.7162 22.3362 23.5409C22.1508 25.8217 18.5354 24.7931 18.7208 23.5409C18.9062 22.2887 19.277 18.0401 19.3697 17.3693C19.4624 16.6985 19.7869 15.8488 20.7603 15.8488H24.7464C25.0709 14.8649 24.1495 10.4422 23.9641 10.4422C23.7787 10.4422 22.8009 12.187 21.9957 12.2765Z" fill="white"/>
<circle cx="22.3536" cy="2.92595" r="2.81853" fill="white"/>
<rect x="6.06641" y="14.2529" width="14.8984" height="0.876375" rx="0.438187" fill="white"/>
</svg>
