<svg width="24" height="26" viewBox="0 0 24 26" fill="none" xmlns="http://www.w3.org/2000/svg">
<path d="M11.5476 5.2C10.8448 5.2 10.2432 4.94542 9.74276 4.43625C9.2423 3.92708 8.99207 3.315 8.99207 2.6C8.99207 1.885 9.2423 1.27292 9.74276 0.76375C10.2432 0.254583 10.8448 0 11.5476 0C12.2504 0 12.852 0.254583 13.3525 0.76375C13.8529 1.27292 14.1032 1.885 14.1032 2.6C14.1032 3.315 13.8529 3.92708 13.3525 4.43625C12.852 4.94542 12.2504 5.2 11.5476 5.2ZM7.71429 26V9.1C6.43651 8.99167 5.13744 8.82917 3.81707 8.6125C2.4967 8.39583 1.24022 8.125 0.0476227 7.8L0.686512 5.2C2.34762 5.655 4.11522 5.98542 5.98929 6.19125C7.86336 6.39708 9.71614 6.5 11.5476 6.5C13.3791 6.5 15.2319 6.39708 17.106 6.19125C18.98 5.98542 20.7476 5.655 22.4087 5.2L23.0476 7.8C21.855 8.125 20.5985 8.39583 19.2782 8.6125C17.9578 8.82917 16.6587 8.99167 15.381 9.1V26H12.8254V18.2H10.2698V26H7.71429Z" fill="white"/>
</svg>
