<svg width="16" height="22" viewBox="0 0 16 22" fill="none" xmlns="http://www.w3.org/2000/svg">
<path d="M9.5 0.669983C9.5 0.669983 10.24 3.31998 10.24 5.46998C10.24 7.52998 8.89 9.19998 6.83 9.19998C4.76 9.19998 3.2 7.52998 3.2 5.46998L3.23 5.10998C1.21 7.50998 0 10.62 0 14C0 18.42 3.58 22 8 22C12.42 22 16 18.42 16 14C16 8.60998 13.41 3.79998 9.5 0.669983ZM7.71 19C5.93 19 4.49 17.6 4.49 15.86C4.49 14.24 5.54 13.1 7.3 12.74C9.07 12.38 10.9 11.53 11.92 10.16C12.31 11.45 12.51 12.81 12.51 14.2C12.51 16.85 10.36 19 7.71 19Z" fill="#FC7A7A"/>
</svg>
