<svg width="21" height="18" viewBox="0 0 21 18" fill="none" xmlns="http://www.w3.org/2000/svg">
<path d="M19.7133 9.22C19.7133 3.73 15.4817 0 10.7733 0C6.1146 0 1.83333 3.65 1.83333 9.28C1.23733 9.62 0.839996 10.26 0.839996 11V13C0.839996 14.1 1.734 15 2.82666 15H3.82V8.9C3.82 5.03 6.92913 1.9 10.7733 1.9C14.6175 1.9 17.7267 5.03 17.7267 8.9V16H9.78V18H17.7267C18.8193 18 19.7133 17.1 19.7133 16V14.78C20.2994 14.47 20.7067 13.86 20.7067 13.14V10.84C20.7067 10.14 20.2994 9.53 19.7133 9.22Z" fill="#FC7A7A"/>
</svg>
