<svg width="250" height="852" viewBox="0 0 250 852" fill="none" xmlns="http://www.w3.org/2000/svg">
<path d="M-246.516 920.651C-245.43 920.798 -244.349 920.943 -243.273 921.088C-238.482 882.412 -234.203 816.218 -244.634 769.762C-259.725 702.551 -246.417 740.316 -242.631 620.869C-238.844 501.421 -299.344 594.248 -281.797 520.052C-264.25 445.855 -276.215 488.156 -276.711 422.065C-277.207 355.974 -241.894 384.893 -281.607 341.213C-321.321 297.534 -285.023 284.817 -299.025 235.573C-313.028 186.329 -292.035 169.029 -287.372 64.055C-282.709 -40.9188 -186.556 24.8885 -103.328 1.31428C-20.1013 -22.2599 20.7781 -17.2219 90.8159 -10.4433C160.854 -3.66473 153.488 15.3153 176.111 58.0258C198.734 100.736 164.036 189.496 86.8401 287.843C9.64402 386.189 54.8515 330.354 -32.6581 407.285C-120.168 484.215 -64.1469 433.236 -129.242 483.262C-194.337 533.289 239.107 610.227 214.195 686.874C189.282 763.52 211.865 714.566 231.993 740.897C245.394 758.428 232.45 758.903 231.692 760.981C245.962 767.093 254.877 771.737 244.635 767.681C234 763.47 231.311 762.023 231.692 760.981C201.623 748.103 147.776 728.708 199.218 770.432C275.076 831.959 199.336 838.549 181.035 867.208C162.799 895.766 162.239 895.896 67.4174 917.996L66.4099 918.23C-28.9739 940.461 -10.8326 952.342 -243.273 921.088C-244.028 927.175 -244.794 932.581 -245.519 937.121L-246.516 920.651Z" fill="white" fill-opacity="0.25"/>
</svg>
