<svg width="355" height="250" viewBox="0 0 355 250" fill="none" xmlns="http://www.w3.org/2000/svg">
<path d="M364.85 202.895C446.828 167.598 415.163 191.359 493.704 347.978C483.362 313.676 455.61 219.057 427.337 115.004C391.997 -15.0623 424.888 -5.60462 463.838 6.94077C502.788 19.4862 493.995 126.693 527.86 234.718C561.724 342.743 540.86 351.626 545.417 389.885C549.975 428.143 524.93 413.896 495.429 358.842C465.928 303.788 417.598 324.627 357.656 380.724C297.714 436.822 192.483 427.716 166.804 431.795C141.126 435.873 -87.125 378.973 38.447 232.462C131.902 212.049 60.169 251.287 161.511 328.344C262.853 405.401 194.896 337.724 258.309 268.418C321.723 199.113 282.872 238.191 364.85 202.895Z" fill="#FF007A"/>
</svg>
