<svg width="393" height="635" viewBox="0 0 393 635" fill="none" xmlns="http://www.w3.org/2000/svg">
<path d="M184.471 170.434C157.283 85.4219 177.865 119.24 341.356 56.2412C306.213 63.2114 209.351 81.6666 103.048 99.7257C-29.8303 122.299 -17.2308 90.4797 -0.971029 52.9281C15.2887 15.3765 121.139 34.5136 231.937 11.2734C342.735 -11.9669 349.555 9.6604 388.075 8.83032C426.595 8.00024 409.988 31.5472 352.335 55.5763C294.683 79.6054 330.654 119.397 380.68 184.492C430.707 249.587 391.538 363.77 393.109 389.723C394.681 415.675 115.433 739.542 -18.2243 600.367C-29.4873 505.374 136.15 477.811 222.662 384.41C309.174 291.01 302.202 352.65 239.366 282.821C176.53 212.992 211.66 255.446 184.471 170.434Z" fill="#FF000D"/>
</svg>
