<svg width="393" height="687" viewBox="0 0 393 687" fill="none" xmlns="http://www.w3.org/2000/svg">
<path d="M38.5533 382.92C13.8612 320.139 24.7516 354.028 -150.675 137.275C-101.424 185.445 38.1006 306.457 202.199 405.146C407.322 528.507 246.422 405.682 213.944 307.217C181.467 208.752 153.373 275.533 26.4332 182.789C-100.506 90.0454 18.434 50.7055 56.546 3.40407C94.658 -43.8974 133.784 5.15405 368.675 76.0948C603.565 147.036 370.468 105.714 404.206 224.992C437.944 344.27 442.285 376.146 392.381 467.548C342.478 558.95 373.362 498.427 299.103 585.68C224.844 672.933 289.228 621.63 218.052 666.917C146.876 712.203 175.817 699.202 38.5533 382.92Z" fill="#23A3FF"/>
</svg>
